<svg width="88" height="46" viewBox="0 0 88 46" fill="none" xmlns="http://www.w3.org/2000/svg">
<g clip-path="url(#clip0_4173_975)">
<path d="M23.1793 46C24.7648 46 26.05 44.7147 26.05 43.1293C26.05 41.5438 24.7648 40.2585 23.1793 40.2585C21.5939 40.2585 20.3086 41.5438 20.3086 43.1293C20.3086 44.7147 21.5939 46 23.1793 46Z" fill="#EBBE1D"/>
<path d="M8.89049 40.2319C10.4759 40.2319 11.7612 38.9466 11.7612 37.3612C11.7612 35.7757 10.4759 34.4905 8.89049 34.4905C7.30504 34.4905 6.01978 35.7757 6.01978 37.3612C6.01978 38.9466 7.30504 40.2319 8.89049 40.2319Z" fill="#EBBE1D"/>
<path d="M2.87071 26.0499C4.45616 26.0499 5.74142 24.7646 5.74142 23.1792C5.74142 21.5937 4.45616 20.3085 2.87071 20.3085C1.28526 20.3085 0 21.5937 0 23.1792C0 24.7646 1.28526 26.0499 2.87071 26.0499Z" fill="#EBBE1D"/>
<path d="M8.63878 11.7611C10.2242 11.7611 11.5095 10.4759 11.5095 8.89042C11.5095 7.30498 10.2242 6.01971 8.63878 6.01971C7.05333 6.01971 5.76807 7.30498 5.76807 8.89042C5.76807 10.4759 7.05333 11.7611 8.63878 11.7611Z" fill="#EBBE1D"/>
<path d="M22.8246 5.74142C24.41 5.74142 25.6953 4.45616 25.6953 2.87071C25.6953 1.28526 24.41 0 22.8246 0C21.2391 0 19.9539 1.28526 19.9539 2.87071C19.9539 4.45616 21.2391 5.74142 22.8246 5.74142Z" fill="#EBBE1D"/>
<path d="M37.1095 11.5095C38.6949 11.5095 39.9802 10.2243 39.9802 8.63884C39.9802 7.05339 38.6949 5.76813 37.1095 5.76813C35.524 5.76813 34.2388 7.05339 34.2388 8.63884C34.2388 10.2243 35.524 11.5095 37.1095 11.5095Z" fill="#EBBE1D"/>
<path d="M43.1293 25.6953C44.7147 25.6953 46 24.4101 46 22.8246C46 21.2392 44.7147 19.9539 43.1293 19.9539C41.5438 19.9539 40.2585 21.2392 40.2585 22.8246C40.2585 24.4101 41.5438 25.6953 43.1293 25.6953Z" fill="#EBBE1D"/>
<path d="M37.3612 39.9803C38.9466 39.9803 40.2319 38.695 40.2319 37.1095C40.2319 35.5241 38.9466 34.2388 37.3612 34.2388C35.7757 34.2388 34.4905 35.5241 34.4905 37.1095C34.4905 38.695 35.7757 39.9803 37.3612 39.9803Z" fill="#EBBE1D"/>
<path fill-rule="evenodd" clip-rule="evenodd" d="M23 9.14816C15.3731 9.14816 9.19015 15.3311 9.19015 22.9581C9.19015 30.585 15.3731 36.7679 23 36.7679C30.627 36.7679 36.8099 30.585 36.8099 22.9581C36.8099 15.3311 30.627 9.14816 23 9.14816ZM7.17261 22.9581C7.17261 14.2168 14.2588 7.13062 23 7.13062C31.7413 7.13062 38.8275 14.2168 38.8275 22.9581C38.8275 31.6993 31.7413 38.7855 23 38.7855C14.2588 38.7855 7.17261 31.6993 7.17261 22.9581Z" fill="#EBBE1D"/>
<path d="M22.4165 41.583L23.9871 41.5616L23.9115 36.0114L22.3409 36.0327L22.4165 41.583Z" fill="#EBBE1D"/>
<path d="M9.46393 35.6649L10.5896 36.7603L14.4608 32.7822L13.3352 31.6868L9.46393 35.6649Z" fill="#EBBE1D"/>
<path d="M4.48619 22.3204L4.50757 23.891L10.0579 23.8154L10.0365 22.2449L4.48619 22.3204Z" fill="#EBBE1D"/>
<path d="M10.403 9.37092L9.30762 10.4966L13.2857 14.3678L14.3811 13.2421L10.403 9.37092Z" fill="#EBBE1D"/>
<path d="M23.7478 4.3917L22.1772 4.41309L22.2528 9.96338L23.8234 9.94199L23.7478 4.3917Z" fill="#EBBE1D"/>
<path d="M36.7048 10.3083L35.5791 9.21289L31.7079 13.191L32.8336 14.2864L36.7048 10.3083Z" fill="#EBBE1D"/>
<path d="M41.6813 23.6554L41.6599 22.0849L36.1096 22.1605L36.131 23.731L41.6813 23.6554Z" fill="#EBBE1D"/>
<path d="M35.7635 36.6118L36.8589 35.4861L32.8808 31.6149L31.7854 32.7406L35.7635 36.6118Z" fill="#EBBE1D"/>
<path d="M15.2189 20.3733C15.238 20.7621 14.6204 20.9146 14.3421 21.1548C13.8122 21.6161 13.4004 21.8639 13.3471 22.5235C13.3394 22.5921 13.3852 22.9085 13.3699 22.9962C13.3547 23.0839 13.328 23.3393 13.2594 23.3469C13.1679 23.3584 13.1793 23.3469 13.1679 23.0153C13.1679 22.9504 13.1602 22.7979 13.0726 22.8094C12.9849 22.8208 12.9734 22.9009 12.9506 22.9581C12.8743 23.1449 12.8743 23.1525 12.6341 23.7358C12.5922 23.8387 12.3901 23.9722 12.5579 23.3965C12.6418 23.0991 12.6341 22.9581 12.2605 23.366C12.1538 23.4804 12.0432 23.5452 11.8793 23.5566C11.7916 23.5642 11.662 23.5604 11.7192 23.4727C11.7497 23.427 11.9327 23.3507 12.0394 23.2249C12.1843 23.0534 12.1805 23.0191 12.3101 22.8399C12.8781 22.0469 12.9963 21.5475 13.53 20.6287C13.8579 20.0683 14.4183 19.161 14.9444 18.7225C14.9749 18.6997 15.0169 18.7187 15.0245 18.7568" fill="url(#paint0_linear_4173_975)"/>
<path d="M15.1276 18.57C15.1581 18.368 15.2458 18.1697 15.3144 17.9753C15.383 17.7809 15.4135 17.575 15.3716 17.3768C15.242 16.7592 15.505 16.3055 15.932 15.9052C16.195 15.6612 16.4733 15.4325 16.7745 15.238C16.8126 15.2113 16.8508 15.1847 16.8889 15.158C17.2168 14.8987 17.2396 14.7081 16.9918 14.3764C16.927 14.2888 16.8584 14.2011 16.8088 14.1058C16.7212 13.9228 16.7822 13.7703 16.9651 13.6864C17.1672 13.5949 17.3159 13.4729 17.3845 13.248C17.4303 13.0917 17.5637 13.0307 17.72 13.065C17.8763 13.0993 17.9869 13.0497 18.0936 12.9392C18.4177 12.5923 18.8294 12.5351 19.2526 12.6647C19.7024 12.8019 20.0188 13.1107 20.1065 13.5949C20.1637 13.9037 20.1561 13.919 20.4382 13.8122C21.0253 13.5911 21.6239 13.3852 22.1614 13.0574C22.5007 12.8515 22.7943 12.577 23.164 12.4207C23.7321 12.1805 24.3192 12.0051 24.9292 11.9098C25.379 11.8412 25.6383 11.9098 26.1606 11.54C26.6486 11.1931 26.8964 11.2046 26.4274 11.6658C26.3321 11.765 26.4007 11.8832 26.5075 11.8679C26.6257 11.8908 26.9383 11.9746 27.6588 11.338C27.8456 11.1741 27.9486 11.2732 27.7884 11.5134C27.7465 11.5782 27.6779 11.6277 27.6283 11.6811C27.2738 12.0128 26.9307 12.3864 26.4084 12.4016C25.6154 12.3483 25.3867 12.8591 24.9063 13.1374C24.1476 13.5797 23.3966 14.0257 22.5541 14.3154C22.1766 14.4451 21.9022 14.7882 21.559 15.0055C20.7851 15.4973 20.2247 16.2445 19.5004 16.7859C18.9056 17.2281 18.6197 17.8343 18.3185 18.4785C18.1012 18.9475 17.983 19.4278 17.9335 19.912C17.8801 20.4533 17.983 20.9947 18.4634 21.3645C19.0963 21.8487 19.2526 22.5044 19.0963 23.2364C18.9514 23.8997 19.0391 24.4906 19.4051 25.0625C19.8359 25.7335 20.2209 26.4388 20.7737 27.0221C21.0024 27.266 21.2426 27.4986 21.5362 27.6702C21.9022 27.8836 22.1957 28.1734 22.4168 28.5241C22.6608 28.9092 22.8896 29.3018 23.0535 29.7365C23.286 30.3541 23.6139 30.9221 24.1858 31.3033C24.3954 31.4444 24.6661 31.4787 24.8491 31.6769C25.116 31.9629 25.1617 32.1459 25.0283 32.4242C24.9292 32.6377 24.7805 32.8168 24.689 33.0342C24.5632 33.3277 24.5022 33.6365 24.4031 33.9377C24.1934 34.5629 23.8465 34.9632 22.9658 34.9365C22.8629 34.9365 22.7638 34.9441 22.6608 34.9365C22.5198 34.9251 22.4016 34.8565 22.3635 34.7154C22.3253 34.5782 22.4092 34.479 22.5121 34.3952C22.5312 34.3799 22.5541 34.3761 22.5731 34.3647C22.8438 34.2007 23.0116 33.9911 23.0535 33.6479C23.1259 33.0189 23.1069 32.4165 22.7561 31.8676C22.5617 31.5626 22.2376 31.3796 21.986 31.1203C21.5285 30.6514 21.0329 30.213 20.6098 29.7174C20.3048 29.3552 19.893 29.1646 19.5423 28.8825C19.4622 28.8177 19.3669 28.7605 19.3212 28.6766C19.0009 28.1124 18.4367 27.815 17.9525 27.43C17.5561 27.1135 17.171 26.7857 16.8622 26.3816C16.7631 26.2481 16.6945 26.2367 16.5725 26.3663C16.298 26.6637 16.0044 26.942 15.7223 27.2317C15.6537 27.3004 15.5698 27.369 15.7223 27.4643C16.561 27.979 17.091 28.7834 17.6171 29.5725C18.0097 30.1596 18.5015 30.5866 19.1344 30.8725C19.3288 30.9602 19.5118 31.0555 19.6529 31.2233C19.7787 31.3758 19.8206 31.5397 19.7291 31.7227C19.4661 32.2412 19.3136 32.7902 19.203 33.362C19.1306 33.7394 18.8485 34.0177 18.5663 34.2617C18.3872 34.4142 18.1317 34.2884 18.105 34.0406C18.0822 33.8424 18.0631 33.6365 18.1394 33.4383C18.2918 33.0418 18.1622 32.672 18.0326 32.306C17.6323 31.1775 16.7021 30.6362 15.6956 30.1673C14.9637 29.828 14.266 29.42 13.6331 28.913C13.3281 28.669 13.0651 28.364 12.8859 28.0095C12.6991 27.6358 12.7334 27.2737 12.9355 26.8962C13.2405 26.3244 13.4997 25.722 13.8733 25.1921C14.2774 24.6126 14.6282 23.995 15.1161 23.4727C15.3068 23.2669 15.4554 23.0114 15.4021 22.676C15.3487 22.3328 15.3945 21.9783 15.4631 21.6314C15.5279 21.3111 15.444 20.9947 15.4364 20.6745C15.4364 20.6249 15.3945 20.5753 15.3792 20.5182" fill="url(#paint1_linear_4173_975)"/>
<path d="M20.3389 20.0149C20.6947 20.0149 20.9832 19.7264 20.9832 19.3706C20.9832 19.0148 20.6947 18.7263 20.3389 18.7263C19.983 18.7263 19.6946 19.0148 19.6946 19.3706C19.6946 19.7264 19.983 20.0149 20.3389 20.0149Z" fill="url(#paint2_linear_4173_975)"/>
<path d="M20.339 21.7762C20.6485 21.7762 20.8994 21.5253 20.8994 21.2158C20.8994 20.9063 20.6485 20.6554 20.339 20.6554C20.0295 20.6554 19.7786 20.9063 19.7786 21.2158C19.7786 21.5253 20.0295 21.7762 20.339 21.7762Z" fill="url(#paint3_linear_4173_975)"/>
<path d="M21.1395 18.4328C21.449 18.4328 21.6999 18.1819 21.6999 17.8724C21.6999 17.5629 21.449 17.312 21.1395 17.312C20.83 17.312 20.5791 17.5629 20.5791 17.8724C20.5791 18.1819 20.83 18.4328 21.1395 18.4328Z" fill="url(#paint4_linear_4173_975)"/>
<path d="M20.6897 23.3507C20.9466 23.3507 21.1548 23.1425 21.1548 22.8856C21.1548 22.6288 20.9466 22.4205 20.6897 22.4205C20.4328 22.4205 20.2246 22.6288 20.2246 22.8856C20.2246 23.1425 20.4328 23.3507 20.6897 23.3507Z" fill="url(#paint5_linear_4173_975)"/>
<path d="M22.3176 17.2471C22.5745 17.2471 22.7828 17.0389 22.7828 16.782C22.7828 16.5251 22.5745 16.3169 22.3176 16.3169C22.0608 16.3169 21.8525 16.5251 21.8525 16.782C21.8525 17.0389 22.0608 17.2471 22.3176 17.2471Z" fill="url(#paint6_linear_4173_975)"/>
<path d="M20.9831 24.6317C21.1916 24.6317 21.3606 24.4627 21.3606 24.2543C21.3606 24.0458 21.1916 23.8768 20.9831 23.8768C20.7747 23.8768 20.6057 24.0458 20.6057 24.2543C20.6057 24.4627 20.7747 24.6317 20.9831 24.6317Z" fill="url(#paint7_linear_4173_975)"/>
<path d="M23.6213 16.3169C23.8298 16.3169 23.9987 16.1479 23.9987 15.9395C23.9987 15.7311 23.8298 15.5621 23.6213 15.5621C23.4129 15.5621 23.2439 15.7311 23.2439 15.9395C23.2439 16.1479 23.4129 16.3169 23.6213 16.3169Z" fill="url(#paint8_linear_4173_975)"/>
<path fill-rule="evenodd" clip-rule="evenodd" d="M27.4053 12.8606C27.4055 12.8606 27.4056 12.8607 27.5635 12.4893C27.7213 12.118 27.7215 12.1181 27.7217 12.1182L27.7223 12.1184L27.7241 12.1192L27.7295 12.1215L27.7483 12.1298C27.7643 12.1369 27.787 12.1471 27.816 12.1606C27.8739 12.1875 27.9571 12.2273 28.0616 12.2806C28.2706 12.3871 28.5653 12.5475 28.9147 12.7658C29.6126 13.2018 30.5334 13.8721 31.4252 14.8099C33.2148 16.6919 34.8848 19.6524 34.3997 23.9224C33.9148 28.1893 31.7028 30.6001 29.605 31.9332C28.5614 32.5964 27.5496 32.9913 26.7987 33.2207C26.4227 33.3356 26.1107 33.4094 25.8909 33.4547C25.7809 33.4774 25.6939 33.493 25.6333 33.503C25.603 33.508 25.5793 33.5117 25.5626 33.5142L25.5429 33.517L25.5371 33.5178L25.5345 33.5181C25.5343 33.5181 25.534 33.5182 25.4819 33.118C25.4298 32.7179 25.4296 32.7179 25.4294 32.718L25.4319 32.7176L25.4448 32.7158C25.4568 32.714 25.4758 32.7111 25.5012 32.7069C25.5521 32.6984 25.6288 32.6847 25.7279 32.6643C25.9262 32.6234 26.2136 32.5556 26.5629 32.4489C27.2623 32.2352 28.2039 31.8674 29.1722 31.2521C31.0984 30.028 33.1448 27.8182 33.5978 23.8313C34.0505 19.8475 32.5028 17.1143 30.8404 15.366C30.0061 14.4887 29.1423 13.8596 28.487 13.4502C28.1598 13.2457 27.8858 13.0968 27.6952 12.9996C27.6 12.9511 27.5257 12.9155 27.4761 12.8925C27.4513 12.881 27.4327 12.8727 27.4208 12.8674L27.408 12.8617L27.4053 12.8606Z" fill="#81623C"/>
<path fill-rule="evenodd" clip-rule="evenodd" d="M19.6951 33.0373C19.695 33.0373 19.6949 33.0373 19.8395 32.6606C19.9842 32.2839 19.9841 32.2838 19.984 32.2838L19.9856 32.2844L19.994 32.2876C20.0019 32.2905 20.0142 32.295 20.0306 32.3008C20.0635 32.3126 20.113 32.3298 20.1767 32.3506C20.3043 32.3923 20.488 32.4482 20.7092 32.5036C21.1551 32.6154 21.7373 32.7216 22.3126 32.7146L22.3225 33.5215C21.6512 33.5297 20.9944 33.4072 20.5129 33.2864C20.2704 33.2256 20.0684 33.1642 19.9261 33.1177C19.8549 33.0945 19.7985 33.0749 19.7592 33.0608C19.7395 33.0538 19.7241 33.0482 19.7133 33.0442L19.7006 33.0394L19.6969 33.038L19.6957 33.0375L19.6951 33.0373Z" fill="#81623C"/>
</g>
<path d="M62.6811 19.5266H57.9762V21.9235H62.5923V24.6576H57.9762V29.2205H55.1355V16.7924H62.6811V19.5266Z" fill="#FEFEFE"/>
<path d="M64.3595 16.7924H67.2002V29.2205H64.3595V16.7924Z" fill="#FEFEFE"/>
<path d="M77.6801 16.7924V19.5266H74.4843V29.2205H71.6436V19.5266H68.4478V16.7924H77.6801Z" fill="#FEFEFE"/>
<path d="M82.9267 29.4691C80.3168 29.4691 78.6479 28.2263 77.9554 26.3976L80.4055 24.9772C80.8494 26.007 81.6128 26.6994 83.0154 26.6994C84.3648 26.6994 84.7021 26.1668 84.7021 25.6874C84.7021 24.924 83.9919 24.6221 82.1277 24.1073C80.2813 23.5924 78.4703 22.7047 78.4703 20.3256C78.4703 17.9287 80.4943 16.5439 82.6426 16.5439C84.6843 16.5439 86.2822 17.5204 87.1877 19.3491L84.7909 20.7517C84.3648 19.864 83.7789 19.3136 82.6426 19.3136C81.7549 19.3136 81.311 19.7574 81.311 20.2546C81.311 20.8227 81.6128 21.2133 83.5481 21.7992C85.43 22.3673 87.5428 23.0242 87.5428 25.6519C87.5428 28.0487 85.6253 29.4691 82.9267 29.4691Z" fill="#FEFEFE"/>
<defs>
<linearGradient id="paint0_linear_4173_975" x1="11.906" y1="21.273" x2="15.0664" y2="21.273" gradientUnits="userSpaceOnUse">
<stop offset="0.34" stop-color="#F2B164"/>
<stop offset="0.66" stop-color="#BA732A"/>
<stop offset="0.73" stop-color="#AE6B26"/>
<stop offset="0.85" stop-color="#8E561E"/>
<stop offset="0.99" stop-color="#603813"/>
</linearGradient>
<linearGradient id="paint1_linear_4173_975" x1="13.6751" y1="23.0991" x2="27.228" y2="23.0991" gradientUnits="userSpaceOnUse">
<stop offset="0.29" stop-color="#F2B164"/>
<stop offset="0.64" stop-color="#BA732A"/>
<stop offset="0.7" stop-color="#AE6B26"/>
<stop offset="0.82" stop-color="#8E561E"/>
<stop offset="0.96" stop-color="#603813"/>
</linearGradient>
<linearGradient id="paint2_linear_4173_975" x1="19.6946" y1="19.3706" x2="20.9832" y2="19.3706" gradientUnits="userSpaceOnUse">
<stop stop-color="#F2B164"/>
<stop offset="0.41" stop-color="#D48F44"/>
<stop offset="0.77" stop-color="#C07A30"/>
<stop offset="1" stop-color="#BA7329"/>
</linearGradient>
<linearGradient id="paint3_linear_4173_975" x1="19.7786" y1="21.2158" x2="20.8994" y2="21.2158" gradientUnits="userSpaceOnUse">
<stop stop-color="#F2B164"/>
<stop offset="1" stop-color="#BA7329"/>
</linearGradient>
<linearGradient id="paint4_linear_4173_975" x1="20.5791" y1="17.8724" x2="21.6961" y2="17.8724" gradientUnits="userSpaceOnUse">
<stop stop-color="#F2B164"/>
<stop offset="1" stop-color="#BA7329"/>
</linearGradient>
<linearGradient id="paint5_linear_4173_975" x1="20.2246" y1="22.8856" x2="21.1586" y2="22.8856" gradientUnits="userSpaceOnUse">
<stop stop-color="#F2B164"/>
<stop offset="1" stop-color="#BA7329"/>
</linearGradient>
<linearGradient id="paint6_linear_4173_975" x1="21.8487" y1="16.782" x2="22.7828" y2="16.782" gradientUnits="userSpaceOnUse">
<stop stop-color="#F2B164"/>
<stop offset="1" stop-color="#BA7329"/>
</linearGradient>
<linearGradient id="paint7_linear_4173_975" x1="20.6019" y1="24.2543" x2="21.3606" y2="24.2543" gradientUnits="userSpaceOnUse">
<stop stop-color="#F2B164"/>
<stop offset="1" stop-color="#BA7329"/>
</linearGradient>
<linearGradient id="paint8_linear_4173_975" x1="23.2439" y1="15.9395" x2="24.0026" y2="15.9395" gradientUnits="userSpaceOnUse">
<stop stop-color="#F2B164"/>
<stop offset="1" stop-color="#BA7329"/>
</linearGradient>
<clipPath id="clip0_4173_975">
<rect width="46" height="46" fill="white"/>
</clipPath>
</defs>
</svg>
