<svg width="23" height="23" viewBox="0 0 23 23" fill="none" xmlns="http://www.w3.org/2000/svg">
<rect width="22.3535" height="22.3535" rx="4" fill="white"/>
<path d="M14.835 6.69673C14.6724 6.69673 14.5134 6.74494 14.3783 6.83526C14.2431 6.92559 14.1377 7.05397 14.0755 7.20418C14.0133 7.35439 13.997 7.51967 14.0287 7.67913C14.0604 7.83859 14.1387 7.98506 14.2537 8.10002C14.3687 8.21499 14.5151 8.29328 14.6746 8.32499C14.834 8.35671 14.9993 8.34043 15.1495 8.27822C15.2997 8.216 15.4281 8.11064 15.5185 7.97545C15.6088 7.84027 15.657 7.68134 15.657 7.51876C15.657 7.30074 15.5704 7.09166 15.4162 6.93749C15.2621 6.78333 15.053 6.69673 14.835 6.69673ZM17.9861 8.35449C17.9728 7.78612 17.8663 7.22379 17.671 6.68988C17.4968 6.23306 17.2257 5.8194 16.8763 5.47738C16.5371 5.12626 16.1225 4.85687 15.6638 4.6896C15.1313 4.48831 14.5684 4.37943 13.9992 4.36764C13.2731 4.32654 13.0402 4.32654 11.1769 4.32654C9.31365 4.32654 9.08074 4.32654 8.35461 4.36764C7.78546 4.37943 7.2225 4.48831 6.69 4.6896C6.23218 4.85856 5.81792 5.12772 5.4775 5.47738C5.12638 5.81659 4.85699 6.23121 4.68972 6.68988C4.48844 7.22238 4.37955 7.78534 4.36776 8.35449C4.32666 9.08062 4.32666 9.31353 4.32666 11.1768C4.32666 13.0401 4.32666 13.273 4.36776 13.9991C4.37955 14.5683 4.48844 15.1312 4.68972 15.6637C4.85699 16.1224 5.12638 16.537 5.4775 16.8762C5.81792 17.2259 6.23218 17.495 6.69 17.664C7.2225 17.8653 7.78546 17.9742 8.35461 17.986C9.08074 18.0271 9.31365 18.0271 11.1769 18.0271C13.0402 18.0271 13.2731 18.0271 13.9992 17.986C14.5684 17.9742 15.1313 17.8653 15.6638 17.664C16.1225 17.4967 16.5371 17.2273 16.8763 16.8762C17.2272 16.5355 17.4986 16.1214 17.671 15.6637C17.8663 15.1298 17.9728 14.5675 17.9861 13.9991C17.9861 13.273 18.0272 13.0401 18.0272 11.1768C18.0272 9.31353 18.0272 9.08062 17.9861 8.35449ZM16.753 13.9169C16.748 14.3517 16.6693 14.7826 16.5201 15.191C16.4107 15.4892 16.2351 15.7585 16.0064 15.9788C15.7842 16.2052 15.5153 16.3806 15.2186 16.4926C14.8101 16.6418 14.3793 16.7205 13.9444 16.7255C13.2594 16.7598 13.0059 16.7666 11.2043 16.7666C9.4027 16.7666 9.14924 16.7666 8.46422 16.7255C8.01271 16.734 7.56313 16.6644 7.13527 16.52C6.85152 16.4022 6.59502 16.2273 6.38174 16.0062C6.15437 15.7862 5.98089 15.5166 5.87482 15.2184C5.70757 14.8041 5.61481 14.3635 5.60081 13.9169C5.60081 13.2319 5.55971 12.9784 5.55971 11.1768C5.55971 9.37518 5.55971 9.12172 5.60081 8.43669C5.60388 7.99215 5.68503 7.5516 5.84057 7.13514C5.96116 6.846 6.14627 6.58826 6.38174 6.38162C6.58986 6.14608 6.84707 5.95902 7.13527 5.83359C7.55282 5.68292 7.99292 5.60417 8.43682 5.60069C9.12184 5.60069 9.3753 5.55958 11.1769 5.55958C12.9785 5.55958 13.232 5.55958 13.917 5.60069C14.3519 5.60567 14.7827 5.68443 15.1912 5.83359C15.5025 5.94913 15.7819 6.13696 16.0064 6.38162C16.2308 6.59204 16.4062 6.84931 16.5201 7.13514C16.6724 7.55228 16.7512 7.99265 16.753 8.43669C16.7873 9.12172 16.7941 9.37518 16.7941 11.1768C16.7941 12.9784 16.7873 13.2319 16.753 13.9169ZM11.1769 7.66261C10.4822 7.66397 9.80342 7.87122 9.22641 8.25819C8.64941 8.64515 8.20006 9.19447 7.93513 9.83672C7.6702 10.479 7.60158 11.1853 7.73795 11.8666C7.87432 12.5478 8.20955 13.1733 8.70129 13.6641C9.19303 14.1549 9.8192 14.4889 10.5007 14.6239C11.1822 14.759 11.8884 14.689 12.5302 14.4228C13.1719 14.1566 13.7203 13.7062 14.1062 13.1285C14.492 12.5507 14.698 11.8715 14.698 11.1768C14.6989 10.7145 14.6084 10.2565 14.4316 9.82932C14.2549 9.4021 13.9955 9.01404 13.6683 8.68745C13.341 8.36086 12.9525 8.10218 12.5249 7.9263C12.0974 7.75042 11.6392 7.66081 11.1769 7.66261ZM11.1769 13.4579C10.7258 13.4579 10.2847 13.3241 9.90959 13.0735C9.53446 12.8228 9.24208 12.4666 9.06942 12.0497C8.89677 11.6329 8.8516 11.1743 8.93961 10.7318C9.02763 10.2893 9.24489 9.88281 9.56391 9.56379C9.88293 9.24477 10.2894 9.02751 10.7319 8.93949C11.1744 8.85147 11.633 8.89665 12.0499 9.0693C12.4667 9.24196 12.823 9.53433 13.0736 9.90947C13.3243 10.2846 13.4581 10.7256 13.4581 11.1768C13.4581 11.4764 13.3991 11.773 13.2844 12.0497C13.1698 12.3265 13.0017 12.578 12.7899 12.7898C12.5781 13.0016 12.3266 13.1697 12.0499 13.2843C11.7731 13.3989 11.4765 13.4579 11.1769 13.4579Z" fill="#0C0C0C"/>
</svg>
