<svg width="1435" height="80" viewBox="0 0 1435 80" fill="none" xmlns="http://www.w3.org/2000/svg">
<mask id="path-1-outside-1_684_12339" maskUnits="userSpaceOnUse" x="-0.8479" y="-0.542969" width="1435" height="81" fill="black">
<rect fill="white" x="-0.8479" y="-0.542969" width="1435" height="81"/>
<path d="M1.0001 2.31303H84.1231V20.695H29.2801V30.088H83.0121V48.369H29.2801V58.671H84.9311V77.457H1.0001V2.31303ZM173.714 46.551L161.089 20.695L148.767 46.551H173.714ZM188.763 77.457L182.905 65.337H139.98L134.223 77.457H105.135L142.303 2.31303H180.885L220.174 77.457H188.763ZM270.313 20.594V33.522H303.239C309.029 33.522 311.925 31.3674 311.925 27.058V26.957C311.925 22.715 309.029 20.594 303.239 20.594H270.313ZM270.313 51.702V77.457H241.629V2.31303H309.905C330.98 2.31303 341.518 8.74336 341.518 21.604V22.715C341.518 25.2737 341.013 27.5967 340.003 29.684C338.993 31.7714 337.646 33.4547 335.963 34.734C334.347 36.0134 332.731 37.0234 331.115 37.764C329.566 38.5047 327.984 39.077 326.368 39.481C331.148 40.5584 334.919 42.6457 337.68 45.743C340.44 48.773 341.821 52.6447 341.821 57.358V68.468C341.821 72.3734 342.292 75.2014 343.235 76.952V77.457H313.945C313.339 76.7837 313.036 75.4707 313.036 73.518V64.731C313.036 60.287 311.857 57.0214 309.501 54.934C307.211 52.7794 303.306 51.702 297.785 51.702H270.313ZM367.91 2.31303H400.028L443.66 45.036V2.31303H472.142V77.457H443.458L396.392 31.906V77.457H367.91V2.31303ZM577.55 20.594V33.522H610.476C616.267 33.522 619.162 31.3674 619.162 27.058V26.957C619.162 22.715 616.267 20.594 610.476 20.594H577.55ZM577.55 51.702V77.457H548.866V2.31303H617.142C638.217 2.31303 648.755 8.74336 648.755 21.604V22.715C648.755 25.2737 648.25 27.5967 647.24 29.684C646.23 31.7714 644.883 33.4547 643.2 34.734C641.584 36.0134 639.968 37.0234 638.352 37.764C636.803 38.5047 635.221 39.077 633.605 39.481C638.386 40.5584 642.156 42.6457 644.917 45.743C647.678 48.773 649.058 52.6447 649.058 57.358V68.468C649.058 72.3734 649.529 75.2014 650.472 76.952V77.457H621.182C620.576 76.7837 620.273 75.4707 620.273 73.518V64.731C620.273 60.287 619.095 57.0214 616.738 54.934C614.449 52.7794 610.543 51.702 605.022 51.702H577.55ZM675.147 2.31303H758.271V20.695H703.428V30.088H757.16V48.369H703.428V58.671H759.079V77.457H675.147V2.31303ZM843.824 77.457H808.878L779.588 2.31303H811.504L828.573 51.904L843.622 2.31303H875.942L891.193 51.096L907.757 2.31303H937.148L907.858 77.457H874.629L858.974 29.987L843.824 77.457ZM1008.17 46.551L995.546 20.695L983.224 46.551H1008.17ZM1023.22 77.457L1017.36 65.337H974.437L968.68 77.457H939.592L976.76 2.31303H1015.34L1054.63 77.457H1023.22ZM1104.77 20.594V33.522H1137.7C1143.49 33.522 1146.38 31.3674 1146.38 27.058V26.957C1146.38 22.715 1143.49 20.594 1137.7 20.594H1104.77ZM1104.77 51.702V77.457H1076.09V2.31303H1144.36C1165.44 2.31303 1175.97 8.74336 1175.97 21.604V22.715C1175.97 25.2737 1175.47 27.5967 1174.46 29.684C1173.45 31.7714 1172.1 33.4547 1170.42 34.734C1168.8 36.0134 1167.19 37.0234 1165.57 37.764C1164.02 38.5047 1162.44 39.077 1160.82 39.481C1165.61 40.5584 1169.38 42.6457 1172.14 45.743C1174.9 48.773 1176.28 52.6447 1176.28 57.358V68.468C1176.28 72.3734 1176.75 75.2014 1177.69 76.952V77.457H1148.4C1147.8 76.7837 1147.49 75.4707 1147.49 73.518V64.731C1147.49 60.287 1146.31 57.0214 1143.96 54.934C1141.67 52.7794 1137.76 51.702 1132.24 51.702H1104.77ZM1202.37 77.457V2.31303H1255.7C1264.04 2.31303 1271.45 2.98636 1277.92 4.33303C1284.38 5.67969 1289.6 7.46403 1293.57 9.68603C1297.54 11.908 1300.78 14.6014 1303.27 17.766C1305.83 20.9307 1307.58 24.129 1308.52 27.361C1309.46 30.593 1309.93 34.0944 1309.93 37.865V40.895C1309.93 44.5984 1309.49 48.066 1308.62 51.298C1307.81 54.53 1306.16 57.7957 1303.67 61.095C1301.25 64.3944 1298.08 67.2224 1294.18 69.579C1290.34 71.8684 1285.12 73.7537 1278.52 75.235C1271.99 76.7164 1264.42 77.457 1255.8 77.457H1202.37ZM1231.05 22.008V57.56H1252.36C1270.88 57.56 1280.14 51.702 1280.14 39.986V39.38C1280.14 27.7987 1270.88 22.008 1252.36 22.008H1231.05ZM1386.57 78.871H1377.38C1346.81 78.871 1331.53 69.983 1331.53 52.207V51.197H1363.04C1363.58 58.267 1369.84 61.802 1381.83 61.802H1382.73C1386.57 61.802 1389.77 61.6337 1392.33 61.297C1394.89 60.893 1396.77 60.3544 1397.99 59.681C1399.2 58.9404 1400.01 58.1997 1400.41 57.459C1400.88 56.651 1401.12 55.742 1401.12 54.732V54.631C1401.12 53.217 1400.75 52.106 1400.01 51.298C1399.33 50.4227 1397.65 49.682 1394.96 49.076C1392.33 48.4027 1388.49 47.9987 1383.44 47.864L1369.5 47.46C1344.93 46.7867 1332.64 39.2454 1332.64 24.836V23.927C1332.64 21.301 1333.01 18.9444 1333.75 16.857C1334.49 14.7024 1335.84 12.615 1337.79 10.595C1339.74 8.57503 1342.3 6.8917 1345.47 5.54503C1348.63 4.19836 1352.77 3.12103 1357.89 2.31303C1363.07 1.4377 1369.07 1.00003 1375.87 1.00003H1384.86C1415.29 1.00003 1430.51 8.9117 1430.51 24.735V25.543H1399.3C1398.69 20.2237 1392.63 17.564 1381.12 17.564H1380.11C1375.4 17.564 1371.76 17.867 1369.2 18.473C1366.64 19.0117 1365.06 19.6514 1364.45 20.392C1363.85 21.0654 1363.54 21.9744 1363.54 23.119V23.22C1363.54 24.3647 1363.88 25.3074 1364.55 26.048C1365.3 26.7887 1366.91 27.462 1369.4 28.068C1371.89 28.6067 1375.4 28.9097 1379.91 28.977L1393.44 29.28C1407.65 29.684 1417.82 31.6704 1423.94 35.239C1430.07 38.7404 1433.13 44.2954 1433.13 51.904V53.318C1433.13 56.0787 1432.8 58.6037 1432.12 60.893C1431.45 63.115 1430.1 65.4044 1428.08 67.761C1426.06 70.0504 1423.37 72.003 1420 73.619C1416.7 75.1677 1412.19 76.447 1406.47 77.457C1400.81 78.3997 1394.18 78.871 1386.57 78.871Z"/>
</mask>
<path d="M1.0001 2.31303V1.31303H9.9659e-05V2.31303H1.0001ZM84.1231 2.31303H85.1231V1.31303H84.1231V2.31303ZM84.1231 20.695V21.695H85.1231V20.695H84.1231ZM29.2801 20.695V19.695H28.2801V20.695H29.2801ZM29.2801 30.088H28.2801V31.088H29.2801V30.088ZM83.0121 30.088H84.0121V29.088H83.0121V30.088ZM83.0121 48.369V49.369H84.0121V48.369H83.0121ZM29.2801 48.369V47.369H28.2801V48.369H29.2801ZM29.2801 58.671H28.2801V59.671H29.2801V58.671ZM84.9311 58.671H85.9311V57.671H84.9311V58.671ZM84.9311 77.457V78.457H85.9311V77.457H84.9311ZM1.0001 77.457H9.9659e-05V78.457H1.0001V77.457ZM1.0001 3.31303H84.1231V1.31303H1.0001V3.31303ZM83.1231 2.31303V20.695H85.1231V2.31303H83.1231ZM84.1231 19.695H29.2801V21.695H84.1231V19.695ZM28.2801 20.695V30.088H30.2801V20.695H28.2801ZM29.2801 31.088H83.0121V29.088H29.2801V31.088ZM82.0121 30.088V48.369H84.0121V30.088H82.0121ZM83.0121 47.369H29.2801V49.369H83.0121V47.369ZM28.2801 48.369V58.671H30.2801V48.369H28.2801ZM29.2801 59.671H84.9311V57.671H29.2801V59.671ZM83.9311 58.671V77.457H85.9311V58.671H83.9311ZM84.9311 76.457H1.0001V78.457H84.9311V76.457ZM2.0001 77.457V2.31303H9.9659e-05V77.457H2.0001ZM173.714 46.551V47.551H175.315L174.613 46.1123L173.714 46.551ZM161.089 20.695L161.988 20.2563L161.078 18.3935L160.186 20.2648L161.089 20.695ZM148.767 46.551L147.864 46.1208L147.183 47.551H148.767V46.551ZM188.763 77.457L187.863 77.8922L188.136 78.457H188.763V77.457ZM182.905 65.337L183.805 64.9019L183.532 64.337H182.905V65.337ZM139.98 65.337V64.337H139.348L139.077 64.908L139.98 65.337ZM134.223 77.457V78.457H134.855L135.126 77.8861L134.223 77.457ZM105.135 77.457L104.239 77.0137L103.525 78.457H105.135V77.457ZM142.303 2.31303V1.31303H141.682L141.407 1.86968L142.303 2.31303ZM180.885 2.31303L181.771 1.84969L181.491 1.31303H180.885V2.31303ZM220.174 77.457V78.457H221.825L221.06 76.9937L220.174 77.457ZM174.613 46.1123L161.988 20.2563L160.19 21.1338L172.815 46.9898L174.613 46.1123ZM160.186 20.2648L147.864 46.1208L149.67 46.9812L161.992 21.1252L160.186 20.2648ZM148.767 47.551H173.714V45.551H148.767V47.551ZM189.663 77.0219L183.805 64.9019L182.005 65.7722L187.863 77.8922L189.663 77.0219ZM182.905 64.337H139.98V66.337H182.905V64.337ZM139.077 64.908L133.32 77.028L135.126 77.8861L140.883 65.7661L139.077 64.908ZM134.223 76.457H105.135V78.457H134.223V76.457ZM106.031 77.9004L143.199 2.75638L141.407 1.86968L104.239 77.0137L106.031 77.9004ZM142.303 3.31303H180.885V1.31303H142.303V3.31303ZM179.999 2.77637L219.288 77.9204L221.06 76.9937L181.771 1.84969L179.999 2.77637ZM220.174 76.457H188.763V78.457H220.174V76.457ZM270.313 20.594V19.594H269.313V20.594H270.313ZM270.313 33.522H269.313V34.522H270.313V33.522ZM270.313 51.702V50.702H269.313V51.702H270.313ZM270.313 77.457V78.457H271.313V77.457H270.313ZM241.629 77.457H240.629V78.457H241.629V77.457ZM241.629 2.31303V1.31303H240.629V2.31303H241.629ZM335.963 34.734L335.358 33.9379L335.35 33.9438L335.342 33.95L335.963 34.734ZM331.115 37.764L330.698 36.855L330.691 36.8584L330.683 36.8619L331.115 37.764ZM326.368 39.481L326.125 38.5109L326.148 40.4566L326.368 39.481ZM337.68 45.743L336.933 46.4084L336.94 46.4165L337.68 45.743ZM343.235 76.952H344.235V76.6999L344.115 76.4779L343.235 76.952ZM343.235 77.457V78.457H344.235V77.457H343.235ZM313.945 77.457L313.201 78.126L313.499 78.457H313.945V77.457ZM309.501 54.934L308.815 55.6622L308.826 55.6726L308.838 55.6826L309.501 54.934ZM269.313 20.594V33.522H271.313V20.594H269.313ZM270.313 34.522H303.239V32.522H270.313V34.522ZM303.239 34.522C306.229 34.522 308.654 33.9708 310.35 32.7083C312.102 31.4044 312.925 29.4596 312.925 27.058H310.925C310.925 28.9658 310.299 30.2529 309.156 31.1038C307.957 31.9959 306.039 32.522 303.239 32.522V34.522ZM312.925 27.058V26.957H310.925V27.058H312.925ZM312.925 26.957C312.925 24.5831 312.098 22.6627 310.344 21.3781C308.649 20.136 306.227 19.594 303.239 19.594V21.594C306.041 21.594 307.962 22.1126 309.162 22.9915C310.304 23.8279 310.925 25.089 310.925 26.957H312.925ZM303.239 19.594H270.313V21.594H303.239V19.594ZM269.313 51.702V77.457H271.313V51.702H269.313ZM270.313 76.457H241.629V78.457H270.313V76.457ZM242.629 77.457V2.31303H240.629V77.457H242.629ZM241.629 3.31303H309.905V1.31303H241.629V3.31303ZM309.905 3.31303C320.373 3.31303 328.057 4.91589 333.094 7.9894C338.05 11.0139 340.518 15.5045 340.518 21.604H342.518C342.518 14.8428 339.717 9.68797 334.135 6.28216C328.634 2.92533 320.511 1.31303 309.905 1.31303V3.31303ZM340.518 21.604V22.715H342.518V21.604H340.518ZM340.518 22.715C340.518 25.1386 340.04 27.3105 339.103 29.2485L340.903 30.1196C341.985 27.8829 342.518 25.4088 342.518 22.715H340.518ZM339.103 29.2485C338.154 31.208 336.904 32.7628 335.358 33.9379L336.568 35.5302C338.388 34.1466 339.831 32.3347 340.903 30.1196L339.103 29.2485ZM335.342 33.95C333.779 35.1873 332.231 36.1525 330.698 36.855L331.531 38.6731C333.231 37.8943 334.914 36.8394 336.583 35.5181L335.342 33.95ZM330.683 36.8619C329.193 37.5745 327.674 38.1236 326.125 38.5109L326.61 40.4512C328.293 40.0304 329.939 39.4349 331.546 38.6662L330.683 36.8619ZM326.148 40.4566C330.763 41.4966 334.335 43.4936 336.933 46.4084L338.426 45.0777C335.503 41.7978 331.534 39.6202 326.587 38.5055L326.148 40.4566ZM336.94 46.4165C339.508 49.2348 340.821 52.8539 340.821 57.358H342.821C342.821 52.4355 341.372 48.3112 338.419 45.0695L336.94 46.4165ZM340.821 57.358V68.468H342.821V57.358H340.821ZM340.821 68.468C340.821 72.4082 341.288 75.4469 342.354 77.4261L344.115 76.4779C343.296 74.9559 342.821 72.3385 342.821 68.468H340.821ZM342.235 76.952V77.457H344.235V76.952H342.235ZM343.235 76.457H313.945V78.457H343.235V76.457ZM314.688 76.7881C314.54 76.6242 314.368 76.3083 314.237 75.7424C314.109 75.1845 314.036 74.4493 314.036 73.518H312.036C312.036 74.5395 312.114 75.4371 312.289 76.1921C312.461 76.9393 312.743 77.6166 313.201 78.126L314.688 76.7881ZM314.036 73.518V64.731H312.036V73.518H314.036ZM314.036 64.731C314.036 60.1223 312.811 56.5305 310.164 54.1854L308.838 55.6826C310.903 57.5122 312.036 60.4517 312.036 64.731H314.036ZM310.186 54.2058C307.614 51.7848 303.384 50.702 297.785 50.702V52.702C303.228 52.702 306.809 53.7739 308.815 55.6622L310.186 54.2058ZM297.785 50.702H270.313V52.702H297.785V50.702ZM367.91 2.31303V1.31303H366.91V2.31303H367.91ZM400.028 2.31303L400.728 1.59852L400.436 1.31303H400.028V2.31303ZM443.66 45.036L442.961 45.7505L444.66 47.4148V45.036H443.66ZM443.66 2.31303V1.31303H442.66V2.31303H443.66ZM472.142 2.31303H473.142V1.31303H472.142V2.31303ZM472.142 77.457V78.457H473.142V77.457H472.142ZM443.458 77.457L442.763 78.1756L443.054 78.457H443.458V77.457ZM396.392 31.906L397.088 31.1875L395.392 29.5466V31.906H396.392ZM396.392 77.457V78.457H397.392V77.457H396.392ZM367.91 77.457H366.91V78.457H367.91V77.457ZM367.91 3.31303H400.028V1.31303H367.91V3.31303ZM399.329 3.02754L442.961 45.7505L444.36 44.3215L400.728 1.59852L399.329 3.02754ZM444.66 45.036V2.31303H442.66V45.036H444.66ZM443.66 3.31303H472.142V1.31303H443.66V3.31303ZM471.142 2.31303V77.457H473.142V2.31303H471.142ZM472.142 76.457H443.458V78.457H472.142V76.457ZM444.154 76.7385L397.088 31.1875L395.697 32.6246L442.763 78.1756L444.154 76.7385ZM395.392 31.906V77.457H397.392V31.906H395.392ZM396.392 76.457H367.91V78.457H396.392V76.457ZM368.91 77.457V2.31303H366.91V77.457H368.91ZM577.55 20.594V19.594H576.55V20.594H577.55ZM577.55 33.522H576.55V34.522H577.55V33.522ZM577.55 51.702V50.702H576.55V51.702H577.55ZM577.55 77.457V78.457H578.55V77.457H577.55ZM548.866 77.457H547.866V78.457H548.866V77.457ZM548.866 2.31303V1.31303H547.866V2.31303H548.866ZM643.2 34.734L642.595 33.9379L642.587 33.9438L642.579 33.95L643.2 34.734ZM638.352 37.764L637.935 36.855L637.928 36.8584L637.92 36.8619L638.352 37.764ZM633.605 39.481L633.362 38.5109L633.385 40.4566L633.605 39.481ZM644.917 45.743L644.17 46.4084L644.178 46.4165L644.917 45.743ZM650.472 76.952H651.472V76.6999L651.352 76.4779L650.472 76.952ZM650.472 77.457V78.457H651.472V77.457H650.472ZM621.182 77.457L620.439 78.126L620.737 78.457H621.182V77.457ZM616.738 54.934L616.053 55.6622L616.064 55.6726L616.075 55.6826L616.738 54.934ZM576.55 20.594V33.522H578.55V20.594H576.55ZM577.55 34.522H610.476V32.522H577.55V34.522ZM610.476 34.522C613.466 34.522 615.891 33.9708 617.587 32.7083C619.339 31.4044 620.162 29.4596 620.162 27.058H618.162C618.162 28.9658 617.537 30.2529 616.393 31.1038C615.195 31.9959 613.276 32.522 610.476 32.522V34.522ZM620.162 27.058V26.957H618.162V27.058H620.162ZM620.162 26.957C620.162 24.5831 619.335 22.6627 617.581 21.3781C615.886 20.136 613.464 19.594 610.476 19.594V21.594C613.279 21.594 615.2 22.1126 616.399 22.9915C617.541 23.8279 618.162 25.089 618.162 26.957H620.162ZM610.476 19.594H577.55V21.594H610.476V19.594ZM576.55 51.702V77.457H578.55V51.702H576.55ZM577.55 76.457H548.866V78.457H577.55V76.457ZM549.866 77.457V2.31303H547.866V77.457H549.866ZM548.866 3.31303H617.142V1.31303H548.866V3.31303ZM617.142 3.31303C627.61 3.31303 635.294 4.91589 640.331 7.9894C645.287 11.0139 647.755 15.5045 647.755 21.604H649.755C649.755 14.8428 646.954 9.68797 641.373 6.28216C635.872 2.92533 627.749 1.31303 617.142 1.31303V3.31303ZM647.755 21.604V22.715H649.755V21.604H647.755ZM647.755 22.715C647.755 25.1386 647.278 27.3105 646.34 29.2485L648.14 30.1196C649.222 27.8829 649.755 25.4088 649.755 22.715H647.755ZM646.34 29.2485C645.392 31.208 644.141 32.7628 642.595 33.9379L643.805 35.5302C645.626 34.1466 647.068 32.3347 648.14 30.1196L646.34 29.2485ZM642.579 33.95C641.016 35.1873 639.468 36.1525 637.935 36.855L638.769 38.6731C640.468 37.8943 642.152 36.8394 643.821 35.5181L642.579 33.95ZM637.92 36.8619C636.43 37.5745 634.911 38.1236 633.362 38.5109L633.847 40.4512C635.531 40.0304 637.176 39.4349 638.783 38.6662L637.92 36.8619ZM633.385 40.4566C638 41.4966 641.572 43.4936 644.17 46.4084L645.663 45.0777C642.74 41.7978 638.771 39.6202 633.825 38.5055L633.385 40.4566ZM644.178 46.4165C646.746 49.2348 648.058 52.8539 648.058 57.358H650.058C650.058 52.4355 648.61 48.3112 645.656 45.0695L644.178 46.4165ZM648.058 57.358V68.468H650.058V57.358H648.058ZM648.058 68.468C648.058 72.4082 648.526 75.4469 649.591 77.4261L651.352 76.4779C650.533 74.9559 650.058 72.3385 650.058 68.468H648.058ZM649.472 76.952V77.457H651.472V76.952H649.472ZM650.472 76.457H621.182V78.457H650.472V76.457ZM621.925 76.7881C621.778 76.6242 621.605 76.3083 621.475 75.7424C621.346 75.1845 621.273 74.4493 621.273 73.518H619.273C619.273 74.5395 619.352 75.4371 619.526 76.1921C619.698 76.9393 619.98 77.6166 620.439 78.126L621.925 76.7881ZM621.273 73.518V64.731H619.273V73.518H621.273ZM621.273 64.731C621.273 60.1223 620.049 56.5305 617.401 54.1854L616.075 55.6826C618.141 57.5122 619.273 60.4517 619.273 64.731H621.273ZM617.423 54.2058C614.851 51.7848 610.622 50.702 605.022 50.702V52.702C610.465 52.702 614.046 53.7739 616.053 55.6622L617.423 54.2058ZM605.022 50.702H577.55V52.702H605.022V50.702ZM675.148 2.31303V1.31303H674.148V2.31303H675.148ZM758.271 2.31303H759.271V1.31303H758.271V2.31303ZM758.271 20.695V21.695H759.271V20.695H758.271ZM703.427 20.695V19.695H702.427V20.695H703.427ZM703.427 30.088H702.427V31.088H703.427V30.088ZM757.159 30.088H758.159V29.088H757.159V30.088ZM757.159 48.369V49.369H758.159V48.369H757.159ZM703.427 48.369V47.369H702.427V48.369H703.427ZM703.427 58.671H702.427V59.671H703.427V58.671ZM759.078 58.671H760.078V57.671H759.078V58.671ZM759.078 77.457V78.457H760.078V77.457H759.078ZM675.148 77.457H674.148V78.457H675.148V77.457ZM675.148 3.31303H758.271V1.31303H675.148V3.31303ZM757.271 2.31303V20.695H759.271V2.31303H757.271ZM758.271 19.695H703.427V21.695H758.271V19.695ZM702.427 20.695V30.088H704.427V20.695H702.427ZM703.427 31.088H757.159V29.088H703.427V31.088ZM756.159 30.088V48.369H758.159V30.088H756.159ZM757.159 47.369H703.427V49.369H757.159V47.369ZM702.427 48.369V58.671H704.427V48.369H702.427ZM703.427 59.671H759.078V57.671H703.427V59.671ZM758.078 58.671V77.457H760.078V58.671H758.078ZM759.078 76.457H675.148V78.457H759.078V76.457ZM676.148 77.457V2.31303H674.148V77.457H676.148ZM843.824 77.457V78.457H844.554L844.776 77.7611L843.824 77.457ZM808.878 77.457L807.946 77.8202L808.194 78.457H808.878V77.457ZM779.588 2.31303V1.31303H778.125L778.656 2.6762L779.588 2.31303ZM811.504 2.31303L812.449 1.98757L812.217 1.31303H811.504V2.31303ZM828.573 51.904L827.627 52.2295L828.633 55.1505L829.53 52.1944L828.573 51.904ZM843.622 2.31303V1.31303H842.88L842.665 2.02264L843.622 2.31303ZM875.942 2.31303L876.896 2.01464L876.677 1.31303H875.942V2.31303ZM891.193 51.096L890.238 51.3944L891.154 54.3219L892.14 51.4175L891.193 51.096ZM907.757 2.31303V1.31303H907.04L906.81 1.99151L907.757 2.31303ZM937.148 2.31303L938.08 2.6762L938.611 1.31303H937.148V2.31303ZM907.858 77.457V78.457H908.541L908.79 77.8202L907.858 77.457ZM874.629 77.457L873.679 77.7702L873.906 78.457H874.629V77.457ZM858.974 29.987L859.924 29.6738L858.958 26.7468L858.021 29.683L858.974 29.987ZM843.824 76.457H808.878V78.457H843.824V76.457ZM809.81 77.0939L780.52 1.94986L778.656 2.6762L807.946 77.8202L809.81 77.0939ZM779.588 3.31303H811.504V1.31303H779.588V3.31303ZM810.558 2.63849L827.627 52.2295L829.518 51.5786L812.449 1.98757L810.558 2.63849ZM829.53 52.1944L844.579 2.60342L842.665 2.02264L827.616 51.6136L829.53 52.1944ZM843.622 3.31303H875.942V1.31303H843.622V3.31303ZM874.987 2.61142L890.238 51.3944L892.147 50.7976L876.896 2.01464L874.987 2.61142ZM892.14 51.4175L908.704 2.63455L906.81 1.99151L890.246 50.7745L892.14 51.4175ZM907.757 3.31303H937.148V1.31303H907.757V3.31303ZM936.216 1.94986L906.926 77.0939L908.79 77.8202L938.08 2.6762L936.216 1.94986ZM907.858 76.457H874.629V78.457H907.858V76.457ZM875.578 77.1438L859.924 29.6738L858.024 30.3002L873.679 77.7702L875.578 77.1438ZM858.021 29.683L842.871 77.153L844.776 77.7611L859.926 30.2911L858.021 29.683ZM1008.17 46.551V47.551H1009.77L1009.07 46.1123L1008.17 46.551ZM995.546 20.695L996.445 20.2563L995.535 18.3935L994.644 20.2648L995.546 20.695ZM983.224 46.551L982.322 46.1208L981.64 47.551H983.224V46.551ZM1023.22 77.457L1022.32 77.8922L1022.59 78.457H1023.22V77.457ZM1017.36 65.337L1018.26 64.9019L1017.99 64.337H1017.36V65.337ZM974.437 65.337V64.337H973.805L973.534 64.908L974.437 65.337ZM968.68 77.457V78.457H969.312L969.584 77.8861L968.68 77.457ZM939.592 77.457L938.696 77.0137L937.982 78.457H939.592V77.457ZM976.76 2.31303V1.31303H976.139L975.864 1.86968L976.76 2.31303ZM1015.34 2.31303L1016.23 1.84969L1015.95 1.31303H1015.34V2.31303ZM1054.63 77.457V78.457H1056.28L1055.52 76.9937L1054.63 77.457ZM1009.07 46.1123L996.445 20.2563L994.648 21.1338L1007.27 46.9898L1009.07 46.1123ZM994.644 20.2648L982.322 46.1208L984.127 46.9812L996.449 21.1252L994.644 20.2648ZM983.224 47.551H1008.17V45.551H983.224V47.551ZM1024.12 77.0219L1018.26 64.9019L1016.46 65.7722L1022.32 77.8922L1024.12 77.0219ZM1017.36 64.337H974.437V66.337H1017.36V64.337ZM973.534 64.908L967.777 77.028L969.584 77.8861L975.341 65.7661L973.534 64.908ZM968.68 76.457H939.592V78.457H968.68V76.457ZM940.489 77.9004L977.657 2.75638L975.864 1.86968L938.696 77.0137L940.489 77.9004ZM976.76 3.31303H1015.34V1.31303H976.76V3.31303ZM1014.46 2.77637L1053.75 77.9204L1055.52 76.9937L1016.23 1.84969L1014.46 2.77637ZM1054.63 76.457H1023.22V78.457H1054.63V76.457ZM1104.77 20.594V19.594H1103.77V20.594H1104.77ZM1104.77 33.522H1103.77V34.522H1104.77V33.522ZM1104.77 51.702V50.702H1103.77V51.702H1104.77ZM1104.77 77.457V78.457H1105.77V77.457H1104.77ZM1076.09 77.457H1075.09V78.457H1076.09V77.457ZM1076.09 2.31303V1.31303H1075.09V2.31303H1076.09ZM1170.42 34.734L1169.81 33.9379L1169.81 33.9438L1169.8 33.95L1170.42 34.734ZM1165.57 37.764L1165.16 36.855L1165.15 36.8584L1165.14 36.8619L1165.57 37.764ZM1160.82 39.481L1160.58 38.5109L1160.61 40.4566L1160.82 39.481ZM1172.14 45.743L1171.39 46.4084L1171.4 46.4165L1172.14 45.743ZM1177.69 76.952H1178.69V76.6999L1178.57 76.4779L1177.69 76.952ZM1177.69 77.457V78.457H1178.69V77.457H1177.69ZM1148.4 77.457L1147.66 78.126L1147.96 78.457H1148.4V77.457ZM1143.96 54.934L1143.27 55.6622L1143.28 55.6726L1143.29 55.6826L1143.96 54.934ZM1103.77 20.594V33.522H1105.77V20.594H1103.77ZM1104.77 34.522H1137.7V32.522H1104.77V34.522ZM1137.7 34.522C1140.69 34.522 1143.11 33.9708 1144.81 32.7083C1146.56 31.4044 1147.38 29.4596 1147.38 27.058H1145.38C1145.38 28.9658 1144.76 30.2529 1143.61 31.1038C1142.41 31.9959 1140.5 32.522 1137.7 32.522V34.522ZM1147.38 27.058V26.957H1145.38V27.058H1147.38ZM1147.38 26.957C1147.38 24.5831 1146.55 22.6627 1144.8 21.3781C1143.11 20.136 1140.68 19.594 1137.7 19.594V21.594C1140.5 21.594 1142.42 22.1126 1143.62 22.9915C1144.76 23.8279 1145.38 25.089 1145.38 26.957H1147.38ZM1137.7 19.594H1104.77V21.594H1137.7V19.594ZM1103.77 51.702V77.457H1105.77V51.702H1103.77ZM1104.77 76.457H1076.09V78.457H1104.77V76.457ZM1077.09 77.457V2.31303H1075.09V77.457H1077.09ZM1076.09 3.31303H1144.36V1.31303H1076.09V3.31303ZM1144.36 3.31303C1154.83 3.31303 1162.51 4.91589 1167.55 7.9894C1172.51 11.0139 1174.97 15.5045 1174.97 21.604H1176.97C1176.97 14.8428 1174.17 9.68797 1168.59 6.28216C1163.09 2.92533 1154.97 1.31303 1144.36 1.31303V3.31303ZM1174.97 21.604V22.715H1176.97V21.604H1174.97ZM1174.97 22.715C1174.97 25.1386 1174.5 27.3105 1173.56 29.2485L1175.36 30.1196C1176.44 27.8829 1176.97 25.4088 1176.97 22.715H1174.97ZM1173.56 29.2485C1172.61 31.208 1171.36 32.7628 1169.81 33.9379L1171.03 35.5302C1172.85 34.1466 1174.29 32.3347 1175.36 30.1196L1173.56 29.2485ZM1169.8 33.95C1168.24 35.1873 1166.69 36.1525 1165.16 36.855L1165.99 38.6731C1167.69 37.8943 1169.37 36.8394 1171.04 35.5181L1169.8 33.95ZM1165.14 36.8619C1163.65 37.5745 1162.13 38.1236 1160.58 38.5109L1161.07 40.4512C1162.75 40.0304 1164.4 39.4349 1166 38.6662L1165.14 36.8619ZM1160.61 40.4566C1165.22 41.4966 1168.79 43.4936 1171.39 46.4084L1172.88 45.0777C1169.96 41.7978 1165.99 39.6202 1161.04 38.5055L1160.61 40.4566ZM1171.4 46.4165C1173.97 49.2348 1175.28 52.8539 1175.28 57.358H1177.28C1177.28 52.4355 1175.83 48.3112 1172.88 45.0695L1171.4 46.4165ZM1175.28 57.358V68.468H1177.28V57.358H1175.28ZM1175.28 68.468C1175.28 72.4082 1175.75 75.4469 1176.81 77.4261L1178.57 76.4779C1177.75 74.9559 1177.28 72.3385 1177.28 68.468H1175.28ZM1176.69 76.952V77.457H1178.69V76.952H1176.69ZM1177.69 76.457H1148.4V78.457H1177.69V76.457ZM1149.15 76.7881C1149 76.6242 1148.83 76.3083 1148.69 75.7424C1148.57 75.1845 1148.49 74.4493 1148.49 73.518H1146.49C1146.49 74.5395 1146.57 75.4371 1146.75 76.1921C1146.92 76.9393 1147.2 77.6166 1147.66 78.126L1149.15 76.7881ZM1148.49 73.518V64.731H1146.49V73.518H1148.49ZM1148.49 64.731C1148.49 60.1223 1147.27 56.5305 1144.62 54.1854L1143.29 55.6826C1145.36 57.5122 1146.49 60.4517 1146.49 64.731H1148.49ZM1144.64 54.2058C1142.07 51.7848 1137.84 50.702 1132.24 50.702V52.702C1137.68 52.702 1141.27 53.7739 1143.27 55.6622L1144.64 54.2058ZM1132.24 50.702H1104.77V52.702H1132.24V50.702ZM1202.37 77.457H1201.37V78.457H1202.37V77.457ZM1202.37 2.31303V1.31303H1201.37V2.31303H1202.37ZM1277.92 4.33303L1278.12 3.35405V3.35405L1277.92 4.33303ZM1293.57 9.68603L1293.08 10.5588V10.5588L1293.57 9.68603ZM1303.27 17.766L1302.48 18.3846L1302.49 18.3948L1303.27 17.766ZM1308.52 27.361L1309.48 27.081V27.081L1308.52 27.361ZM1308.62 51.298L1307.65 51.0366L1307.65 51.046L1307.65 51.0555L1308.62 51.298ZM1303.67 61.095L1302.87 60.4924L1302.86 60.503L1303.67 61.095ZM1294.18 69.579L1294.69 70.4379L1294.69 70.4352L1294.18 69.579ZM1278.52 75.235L1278.3 74.2593L1278.3 74.2598L1278.52 75.235ZM1231.05 22.008V21.008H1230.05V22.008H1231.05ZM1231.05 57.56H1230.05V58.56H1231.05V57.56ZM1203.37 77.457V2.31303H1201.37V77.457H1203.37ZM1202.37 3.31303H1255.7V1.31303H1202.37V3.31303ZM1255.7 3.31303C1263.99 3.31303 1271.33 3.98242 1277.71 5.31201L1278.12 3.35405C1271.57 1.99031 1264.1 1.31303 1255.7 1.31303V3.31303ZM1277.71 5.31201C1284.12 6.6464 1289.23 8.40331 1293.08 10.5588L1294.06 8.81327C1289.97 6.52475 1284.64 4.71299 1278.12 3.35405L1277.71 5.31201ZM1293.08 10.5588C1296.95 12.7248 1300.08 15.3361 1302.48 18.3846L1304.05 17.1475C1301.47 13.8667 1298.13 11.0912 1294.06 8.81327L1293.08 10.5588ZM1302.49 18.3948C1304.98 21.4774 1306.66 24.5598 1307.56 27.641L1309.48 27.081C1308.49 23.6983 1306.67 20.384 1304.04 17.1373L1302.49 18.3948ZM1307.56 27.641C1308.47 30.7719 1308.93 34.1779 1308.93 37.865H1310.93C1310.93 34.0108 1310.45 30.4142 1309.48 27.081L1307.56 27.641ZM1308.93 37.865V40.895H1310.93V37.865H1308.93ZM1308.93 40.895C1308.93 44.5193 1308.5 47.8983 1307.65 51.0366L1309.58 51.5594C1310.49 48.2338 1310.93 44.6774 1310.93 40.895H1308.93ZM1307.65 51.0555C1306.88 54.1298 1305.3 57.2753 1302.87 60.4924L1304.47 61.6976C1307.02 58.3161 1308.74 54.9303 1309.59 51.5406L1307.65 51.0555ZM1302.86 60.503C1300.53 63.6846 1297.47 66.4265 1293.66 68.7228L1294.69 70.4352C1298.7 68.0182 1301.97 65.1042 1304.48 61.6871L1302.86 60.503ZM1293.66 68.7202C1289.95 70.935 1284.85 72.7905 1278.3 74.2593L1278.74 76.2107C1285.4 74.7169 1290.73 72.8017 1294.69 70.4379L1293.66 68.7202ZM1278.3 74.2598C1271.86 75.7208 1264.36 76.457 1255.8 76.457V78.457C1264.47 78.457 1272.12 77.712 1278.74 76.2103L1278.3 74.2598ZM1255.8 76.457H1202.37V78.457H1255.8V76.457ZM1230.05 22.008V57.56H1232.05V22.008H1230.05ZM1231.05 58.56H1252.36V56.56H1231.05V58.56ZM1252.36 58.56C1261.69 58.56 1268.86 57.0898 1273.73 54.0116C1278.67 50.8845 1281.14 46.1583 1281.14 39.986H1279.14C1279.14 45.5298 1276.98 49.5905 1272.66 52.3215C1268.27 55.1013 1261.55 56.56 1252.36 56.56V58.56ZM1281.14 39.986V39.38H1279.14V39.986H1281.14ZM1281.14 39.38C1281.14 33.2699 1278.67 28.5943 1273.72 25.5032C1268.86 22.4611 1261.69 21.008 1252.36 21.008V23.008C1261.55 23.008 1268.27 24.4503 1272.66 27.1989C1276.98 29.8985 1279.14 33.9089 1279.14 39.38H1281.14ZM1252.36 21.008H1231.05V23.008H1252.36V21.008ZM1331.53 51.197V50.197H1330.53V51.197H1331.53ZM1363.04 51.197L1364.04 51.1211L1363.97 50.197H1363.04V51.197ZM1392.33 61.297L1392.46 62.2885L1392.47 62.2868L1392.49 62.2848L1392.33 61.297ZM1397.99 59.681L1398.47 60.5552L1398.49 60.5451L1398.51 60.5343L1397.99 59.681ZM1400.41 57.459L1399.55 56.9552L1399.54 56.9676L1399.53 56.9802L1400.41 57.459ZM1400.01 51.298L1399.21 51.9077L1399.24 51.9419L1399.27 51.9738L1400.01 51.298ZM1394.96 49.076L1394.71 50.0447L1394.72 50.0484L1394.74 50.0516L1394.96 49.076ZM1383.44 47.864L1383.41 48.8636L1383.41 48.8637L1383.44 47.864ZM1369.5 47.46L1369.53 46.4604L1369.53 46.4604L1369.5 47.46ZM1333.75 16.857L1334.69 17.1915L1334.7 17.1821L1333.75 16.857ZM1337.79 10.595L1337.07 9.9V9.9L1337.79 10.595ZM1345.47 5.54503L1345.86 6.46518V6.46518L1345.47 5.54503ZM1357.89 2.31303L1358.04 3.30085L1358.06 3.29908L1357.89 2.31303ZM1430.51 25.543V26.543H1431.51V25.543H1430.51ZM1399.3 25.543L1398.3 25.6562L1398.41 26.543H1399.3V25.543ZM1369.2 18.473L1369.41 19.4516L1369.42 19.449L1369.43 19.4461L1369.2 18.473ZM1364.45 20.392L1365.2 21.061L1365.21 21.0435L1365.23 21.0253L1364.45 20.392ZM1364.55 26.048L1363.81 26.7207L1363.83 26.7383L1363.85 26.7551L1364.55 26.048ZM1369.4 28.068L1369.17 29.0397L1369.18 29.0427L1369.19 29.0454L1369.4 28.068ZM1379.91 28.977L1379.93 27.9773L1379.92 27.9771L1379.91 28.977ZM1393.44 29.28L1393.47 28.2804L1393.46 28.2803L1393.44 29.28ZM1423.94 35.239L1423.44 36.1032L1423.45 36.1073L1423.94 35.239ZM1432.12 60.893L1433.08 61.183L1433.08 61.1752L1432.12 60.893ZM1428.08 67.761L1428.83 68.4227L1428.84 68.4173L1428.84 68.4118L1428.08 67.761ZM1420 73.619L1420.43 74.5243L1420.44 74.5206L1420 73.619ZM1406.47 77.457L1406.63 78.4435L1406.64 78.4418L1406.47 77.457ZM1386.57 77.871H1377.38V79.871H1386.57V77.871ZM1377.38 77.871C1362.16 77.871 1350.91 75.6526 1343.49 71.3406C1336.16 67.0768 1332.53 60.7412 1332.53 52.207H1330.53C1330.53 61.4488 1334.54 68.4453 1342.49 73.0695C1350.36 77.6455 1362.03 79.871 1377.38 79.871V77.871ZM1332.53 52.207V51.197H1330.53V52.207H1332.53ZM1331.53 52.197H1363.04V50.197H1331.53V52.197ZM1362.04 51.273C1362.34 55.1463 1364.23 58.0929 1367.65 60.0216C1371 61.9127 1375.76 62.802 1381.83 62.802V60.802C1375.9 60.802 1371.54 59.9239 1368.63 58.28C1365.79 56.6737 1364.28 54.3177 1364.04 51.1211L1362.04 51.273ZM1381.83 62.802H1382.73V60.802H1381.83V62.802ZM1382.73 62.802C1386.6 62.802 1389.84 62.6329 1392.46 62.2885L1392.2 60.3056C1389.7 60.6345 1386.55 60.802 1382.73 60.802V62.802ZM1392.49 62.2848C1395.08 61.8755 1397.1 61.3153 1398.47 60.5552L1397.5 58.8069C1396.44 59.3934 1394.7 59.9105 1392.17 60.3093L1392.49 62.2848ZM1398.51 60.5343C1399.78 59.7574 1400.76 58.9044 1401.29 57.9379L1399.53 56.9802C1399.25 57.495 1398.62 58.1233 1397.46 58.8277L1398.51 60.5343ZM1401.27 57.9629C1401.84 56.9898 1402.12 55.9045 1402.12 54.732H1400.12C1400.12 55.5796 1399.92 56.3122 1399.55 56.9552L1401.27 57.9629ZM1402.12 54.732V54.631H1400.12V54.732H1402.12ZM1402.12 54.631C1402.12 53.0417 1401.7 51.6633 1400.74 50.6223L1399.27 51.9738C1399.8 52.5487 1400.12 53.3924 1400.12 54.631H1402.12ZM1400.8 50.6883C1400.31 50.0569 1399.55 49.5689 1398.64 49.1707C1397.72 48.765 1396.56 48.4113 1395.18 48.1004L1394.74 50.0516C1396.05 50.3468 1397.07 50.6664 1397.84 51.0013C1398.61 51.3438 1399.03 51.6638 1399.21 51.9077L1400.8 50.6883ZM1395.2 48.1074C1392.47 47.4058 1388.54 46.9996 1383.47 46.8644L1383.41 48.8637C1388.44 48.9977 1392.19 49.3996 1394.71 50.0447L1395.2 48.1074ZM1383.47 46.8644L1369.53 46.4604L1369.47 48.4596L1383.41 48.8636L1383.47 46.8644ZM1369.53 46.4604C1357.31 46.1256 1348.3 44.082 1342.38 40.4467C1336.53 36.8578 1333.64 31.6927 1333.64 24.836H1331.64C1331.64 32.3886 1334.89 38.1989 1341.33 42.1513C1347.7 46.0574 1357.12 48.1212 1369.48 48.4597L1369.53 46.4604ZM1333.64 24.836V23.927H1331.64V24.836H1333.64ZM1333.64 23.927C1333.64 21.3943 1334 19.1535 1334.69 17.1914L1332.81 16.5226C1332.02 18.7352 1331.64 21.2077 1331.64 23.927H1333.64ZM1334.7 17.1821C1335.38 15.1943 1336.63 13.2288 1338.51 11.29L1337.07 9.9C1335.04 12.0013 1333.6 14.2105 1332.8 16.5319L1334.7 17.1821ZM1338.51 11.29C1340.35 9.38522 1342.79 7.77089 1345.86 6.46518L1345.07 4.62488C1341.81 6.0125 1339.13 7.76484 1337.07 9.9L1338.51 11.29ZM1345.86 6.46518C1348.92 5.16242 1352.97 4.10175 1358.04 3.30079L1357.73 1.32527C1352.57 2.1403 1348.34 3.2343 1345.07 4.62488L1345.86 6.46518ZM1358.06 3.29908C1363.17 2.43526 1369.11 2.00003 1375.87 2.00003V2.83718e-05C1369.03 2.83718e-05 1362.97 0.440127 1357.72 1.32698L1358.06 3.29908ZM1375.87 2.00003H1384.86V2.83718e-05H1375.87V2.00003ZM1384.86 2.00003C1400.02 2.00003 1411.24 3.97636 1418.63 7.82103C1422.32 9.73574 1425.02 12.0997 1426.81 14.8907C1428.6 17.6773 1429.51 20.9464 1429.51 24.735H1431.51C1431.51 20.612 1430.51 16.9584 1428.5 13.8112C1426.48 10.6685 1423.48 8.08765 1419.56 6.04653C1411.73 1.97953 1400.13 2.83718e-05 1384.86 2.83718e-05V2.00003ZM1429.51 24.735V25.543H1431.51V24.735H1429.51ZM1430.51 24.543H1399.3V26.543H1430.51V24.543ZM1400.29 25.4298C1399.94 22.3287 1397.97 20.0766 1394.7 18.6431C1391.48 17.2309 1386.93 16.564 1381.12 16.564V18.564C1386.82 18.564 1391.05 19.227 1393.9 20.4745C1396.69 21.7007 1398.05 23.4381 1398.3 25.6562L1400.29 25.4298ZM1381.12 16.564H1380.11V18.564H1381.12V16.564ZM1380.11 16.564C1375.37 16.564 1371.64 16.8673 1368.97 17.4999L1369.43 19.4461C1371.88 18.8668 1375.42 18.564 1380.11 18.564V16.564ZM1368.99 17.4945C1367.68 17.7703 1366.59 18.0794 1365.72 18.4297C1364.88 18.7702 1364.14 19.1928 1363.68 19.7588L1365.23 21.0253C1365.37 20.8506 1365.73 20.5831 1366.47 20.2839C1367.19 19.9945 1368.16 19.7144 1369.41 19.4516L1368.99 17.4945ZM1363.71 19.7231C1362.9 20.6247 1362.54 21.7948 1362.54 23.119H1364.54C1364.54 22.1539 1364.8 21.5061 1365.2 21.061L1363.71 19.7231ZM1362.54 23.119V23.22H1364.54V23.119H1362.54ZM1362.54 23.22C1362.54 24.5752 1362.95 25.7695 1363.81 26.7207L1365.29 25.3754C1364.81 24.8452 1364.54 24.1542 1364.54 23.22H1362.54ZM1363.85 26.7551C1364.35 27.2596 1365.08 27.6739 1365.94 28.0316C1366.81 28.3952 1367.89 28.7295 1369.17 29.0397L1369.64 27.0964C1368.42 26.8006 1367.45 26.4952 1366.71 26.1855C1365.95 25.8698 1365.5 25.5772 1365.26 25.3409L1363.85 26.7551ZM1369.19 29.0454C1371.78 29.6048 1375.36 29.9092 1379.89 29.9769L1379.92 27.9771C1375.43 27.9102 1372.01 27.6086 1369.61 27.0906L1369.19 29.0454ZM1379.88 29.9768L1393.42 30.2798L1393.46 28.2803L1379.93 27.9773L1379.88 29.9768ZM1393.41 30.2796C1407.59 30.6827 1417.54 32.6676 1423.44 36.1032L1424.45 34.3749C1418.09 30.6731 1407.71 28.6853 1393.47 28.2804L1393.41 30.2796ZM1423.45 36.1073C1429.23 39.4142 1432.13 44.62 1432.13 51.904H1434.13C1434.13 43.9708 1430.91 38.0665 1424.44 34.3708L1423.45 36.1073ZM1432.13 51.904V53.318H1434.13V51.904H1432.13ZM1432.13 53.318C1432.13 55.9978 1431.81 58.4262 1431.16 60.6109L1433.08 61.1752C1433.79 58.7812 1434.13 56.1596 1434.13 53.318H1432.13ZM1431.17 60.603C1430.54 62.6557 1429.28 64.8252 1427.32 67.1102L1428.84 68.4118C1430.92 65.9835 1432.36 63.5744 1433.08 61.183L1431.17 60.603ZM1427.33 67.0994C1425.42 69.2686 1422.84 71.1469 1419.57 72.7175L1420.44 74.5206C1423.9 72.8592 1426.71 70.8321 1428.83 68.4227L1427.33 67.0994ZM1419.58 72.7138C1416.39 74.2096 1411.98 75.4696 1406.3 76.4722L1406.64 78.4418C1412.41 77.4244 1417.02 76.1258 1420.43 74.5243L1419.58 72.7138ZM1406.31 76.4706C1400.72 77.4019 1394.14 77.871 1386.57 77.871V79.871C1394.22 79.871 1400.91 79.3975 1406.63 78.4434L1406.31 76.4706Z" fill="#EDBE00" mask="url(#path-1-outside-1_684_12339)"/>
</svg>
